<svg width="20" height="16" viewBox="0 0 20 16" fill="none" xmlns="http://www.w3.org/2000/svg">
<path fill-rule="evenodd" clip-rule="evenodd" d="M1.34019 0.0602524C0.675808 0.239173 0.166515 0.780702 0.0412037 1.44149C-0.0137346 1.73114 -0.0137346 13.5859 0.0412037 13.8756C0.166007 14.5337 0.650878 15.0534 1.32717 15.2541C1.5195 15.3112 2.33341 15.3171 10.0043 15.3171C17.6752 15.3171 18.4891 15.3112 18.6814 15.2541C19.3614 15.0524 19.8462 14.5298 19.9688 13.8663C19.9954 13.7227 20.0051 11.9165 19.9975 8.53408C19.9847 2.85406 20.0055 3.28446 19.7228 2.8446C19.444 2.41072 18.9707 2.10157 18.4758 2.02998C18.3403 2.01041 16.4007 1.99357 14.1657 1.99259L10.102 1.99083L9.37911 1.12577C8.98153 0.64996 8.60142 0.202053 8.53441 0.130351L8.41257 0L4.97866 0.00257897C2.15262 0.00468898 1.50852 0.0148873 1.34019 0.0602524Z" fill="#AFB6C6"/>
</svg>
