<svg width="19" height="19" viewBox="0 0 19 19" fill="none" xmlns="http://www.w3.org/2000/svg">
<path fill-rule="evenodd" clip-rule="evenodd" d="M12.8063 0.0590136C12.2332 0.204595 11.6583 0.581614 11.294 1.05076C11.1347 1.25588 10.835 1.81839 10.835 1.91215C10.835 1.94545 9.62251 1.95591 5.74037 1.95621L0.645762 1.95658L0.460166 2.04374C0.241906 2.14626 0.175128 2.21449 0.0732732 2.43906C-0.062286 2.7379 0.00148475 3.06693 0.241423 3.30661C0.484516 3.54944 0.0903483 3.5324 5.71702 3.54331L10.8254 3.55323L10.89 3.72891C11.2045 4.58347 12.0166 5.27589 12.9214 5.46082C14.1908 5.72024 15.5167 5.00195 16.0031 3.79127L16.0918 3.57052L17.2403 3.5517C18.482 3.53136 18.5311 3.52368 18.7524 3.31577C18.8898 3.18664 18.9994 2.93783 19 2.7539C19.0005 2.59002 18.8658 2.2695 18.7552 2.17132C18.7162 2.13672 18.6095 2.07444 18.518 2.03294C18.3626 1.96245 18.2774 1.9574 17.228 1.95666L16.1043 1.95584L16.0636 1.85376C15.9362 1.53461 15.7406 1.19011 15.5682 0.981053C15.2394 0.582468 14.7239 0.241269 14.2071 0.0801345C13.896 -0.0168579 13.1492 -0.028105 12.8063 0.0590136ZM13.9361 1.67604C14.4359 1.89793 14.7121 2.41953 14.6142 2.95687C14.5662 3.22053 14.4774 3.39005 14.288 3.57939C14.0379 3.82954 13.8442 3.90471 13.4519 3.90396C13.1748 3.90344 13.0893 3.88849 12.9508 3.81651C12.7233 3.69825 12.5184 3.4961 12.4008 3.27357C12.3159 3.1131 12.3025 3.04276 12.3019 2.7539C12.3011 2.36166 12.3762 2.16794 12.6261 1.91805C12.8151 1.72912 12.9474 1.65707 13.2106 1.60005C13.4655 1.54482 13.6945 1.5688 13.9361 1.67604ZM5.19286 6.33412C4.28459 6.46333 3.48812 7.0356 3.09878 7.83867C3.00958 8.02271 2.92696 8.20251 2.91519 8.23826C2.89544 8.29824 2.8061 8.30329 1.75121 8.30403C0.468889 8.30496 0.422602 8.31298 0.19276 8.57478C-0.0642533 8.86746 -0.0642533 9.29797 0.19276 9.59066C0.422602 9.85246 0.468889 9.86048 1.75121 9.8614C2.8061 9.86215 2.89544 9.8672 2.91519 9.92718C2.92696 9.96289 3.00958 10.1427 3.09878 10.3268C3.44065 11.032 4.10263 11.5651 4.89806 11.7758C5.18703 11.8524 5.78591 11.8618 6.10228 11.7948C6.97551 11.6097 7.72372 10.9745 8.09083 10.1065L8.1863 9.88078L13.3246 9.86222C19.0499 9.84155 18.5628 9.86601 18.8081 9.58672C19.0601 9.29968 19.0601 8.86576 18.8081 8.57871C18.5628 8.29943 19.0499 8.32389 13.3246 8.30322L8.1863 8.28466L8.09083 8.05893C7.79517 7.35998 7.2849 6.83556 6.60795 6.53512C6.2146 6.36051 5.61041 6.27469 5.19286 6.33412ZM5.84801 7.94669C6.07451 8.007 6.34062 8.18143 6.4751 8.35771C6.7908 8.77162 6.78987 9.395 6.47295 9.81051C6.33695 9.98883 6.0303 10.1797 5.79196 10.2343C4.83299 10.4541 4.03975 9.42395 4.49138 8.54538C4.75118 8.04 5.29583 7.79966 5.84801 7.94669ZM12.8951 12.7074C12.0105 12.8955 11.1999 13.5945 10.89 14.4365L10.8254 14.6122L5.71702 14.6221C0.0903483 14.633 0.484516 14.616 0.241423 14.8588C0.00148475 15.0985 -0.062286 15.4275 0.0732732 15.7264C0.175128 15.951 0.241906 16.0192 0.460166 16.1217L0.645762 16.2089L5.74037 16.2092C9.62251 16.2095 10.835 16.22 10.835 16.2533C10.835 16.347 11.1347 16.9096 11.294 17.1147C11.6733 17.6032 12.2932 17.9947 12.8913 18.1236C13.244 18.1997 13.8976 18.1803 14.2071 18.0847C14.7214 17.9259 15.239 17.5835 15.5682 17.1844C15.7406 16.9753 15.9362 16.6308 16.0636 16.3117L16.1043 16.2096L17.228 16.2092C18.3294 16.2089 18.3553 16.2071 18.5372 16.1217C18.7555 16.0192 18.8222 15.951 18.9241 15.7264C19.1026 15.3328 18.9248 14.8792 18.5186 14.6923C18.4113 14.6429 18.1891 14.6293 17.2403 14.6137L16.0918 14.5949L16.0031 14.3742C15.5144 13.1577 14.1695 12.4365 12.8951 12.7074ZM13.9602 14.3473C14.1654 14.4476 14.4139 14.6853 14.5094 14.8726C14.6693 15.186 14.6706 15.6345 14.5124 15.9445C14.2165 16.5246 13.4893 16.7631 12.9129 16.4691C12.7261 16.3737 12.4882 16.1254 12.387 15.9199C12.263 15.668 12.2641 15.1512 12.3893 14.9104C12.5449 14.611 12.8184 14.3784 13.1364 14.2752C13.3178 14.2163 13.7741 14.2562 13.9602 14.3473Z" fill="#AFB6C6"/>
</svg>
