<svg width="34" height="34" viewBox="0 0 34 34" fill="none" xmlns="http://www.w3.org/2000/svg">
<circle cx="17" cy="17" r="17" fill="#00A0EC"/>
<path d="M15.4062 12.228V19.088C15.4062 20.04 15.1309 20.782 14.5802 21.314C14.0295 21.8367 13.2922 22.098 12.3682 22.098C11.4349 22.098 10.6789 21.8273 10.1002 21.286C9.53085 20.7447 9.24619 19.9887 9.24619 19.018H11.2062C11.2155 19.438 11.3135 19.7647 11.5002 19.998C11.6962 20.2313 11.9762 20.348 12.3402 20.348C12.6949 20.348 12.9655 20.236 13.1522 20.012C13.3389 19.788 13.4322 19.48 13.4322 19.088V12.228H15.4062ZM21.0666 22.098C20.3852 22.098 19.7692 21.9813 19.2186 21.748C18.6772 21.5147 18.2479 21.1787 17.9306 20.74C17.6132 20.3013 17.4499 19.7833 17.4406 19.186H19.5406C19.5686 19.5873 19.7086 19.9047 19.9606 20.138C20.2219 20.3713 20.5766 20.488 21.0246 20.488C21.4819 20.488 21.8412 20.3807 22.1026 20.166C22.3639 19.942 22.4946 19.6527 22.4946 19.298C22.4946 19.0087 22.4059 18.7707 22.2286 18.584C22.0512 18.3973 21.8272 18.2527 21.5566 18.15C21.2952 18.038 20.9312 17.9167 20.4646 17.786C19.8299 17.5993 19.3119 17.4173 18.9106 17.24C18.5186 17.0533 18.1779 16.778 17.8886 16.414C17.6086 16.0407 17.4686 15.546 17.4686 14.93C17.4686 14.3513 17.6132 13.8473 17.9026 13.418C18.1919 12.9887 18.5979 12.662 19.1206 12.438C19.6432 12.2047 20.2406 12.088 20.9126 12.088C21.9206 12.088 22.7372 12.3353 23.3626 12.83C23.9972 13.3153 24.3472 13.9967 24.4126 14.874H22.2566C22.2379 14.538 22.0932 14.2627 21.8226 14.048C21.5612 13.824 21.2112 13.712 20.7726 13.712C20.3899 13.712 20.0819 13.81 19.8486 14.006C19.6246 14.202 19.5126 14.4867 19.5126 14.86C19.5126 15.1213 19.5966 15.3407 19.7646 15.518C19.9419 15.686 20.1566 15.826 20.4086 15.938C20.6699 16.0407 21.0339 16.162 21.5006 16.302C22.1352 16.4887 22.6532 16.6753 23.0546 16.862C23.4559 17.0487 23.8012 17.3287 24.0906 17.702C24.3799 18.0753 24.5246 18.5653 24.5246 19.172C24.5246 19.6947 24.3892 20.18 24.1186 20.628C23.8479 21.076 23.4512 21.4353 22.9286 21.706C22.4059 21.9673 21.7852 22.098 21.0666 22.098Z" fill="white"/>
</svg>
