<svg width="20" height="20" viewBox="0 0 20 20" fill="none" xmlns="http://www.w3.org/2000/svg">
<path fill-rule="evenodd" clip-rule="evenodd" d="M4.12109 0.04809C3.84016 0.172978 3.75 0.380278 3.75 0.901165V1.24336L2.86133 1.24402C1.85746 1.2448 1.60945 1.2804 1.18754 1.4843C0.829805 1.65721 0.416797 2.06619 0.245 2.41772C0.0328906 2.85174 0.00121094 3.07053 0.000585937 4.1057L0 5.03376H10H20L19.9994 4.1057C19.9988 3.07053 19.9671 2.85174 19.755 2.41772C19.5851 2.07013 19.1704 1.65784 18.8169 1.48528C18.4918 1.32655 18.1231 1.24492 17.727 1.24402L17.4267 1.24336L17.4145 2.24957C17.4013 3.34656 17.3926 3.39076 17.1576 3.56578C17.0077 3.67746 16.6924 3.69071 16.5353 3.59196C16.2665 3.42304 16.2716 3.45414 16.25 1.84388C16.2313 0.451788 16.227 0.384615 16.1499 0.281415C15.876 -0.0853167 15.4051 -0.0943824 15.1668 0.262463C15.0882 0.380122 15.0781 0.443464 15.0781 0.819301V1.24336H14.3555H13.6328L13.6327 2.24957C13.6325 3.18471 13.627 3.26478 13.5549 3.38314C13.3169 3.77359 12.756 3.75628 12.5488 3.35207C12.4627 3.18397 12.4609 3.15415 12.4609 1.81997C12.4609 0.316076 12.4549 0.272896 12.2212 0.106196C12.0473 -0.0179491 11.7346 -0.0243185 11.5775 0.0930277C11.3436 0.267738 11.3096 0.354722 11.2954 0.816253L11.2821 1.24336H10.5825H9.88281V2.21198C9.88281 3.13965 9.8791 3.18787 9.79492 3.35207C9.59363 3.74475 9.04266 3.77464 8.80094 3.406C8.73719 3.30874 8.72859 3.16017 8.71094 1.84388C8.69223 0.451788 8.68793 0.384615 8.61086 0.281415C8.4634 0.0840011 8.33082 0.0124523 8.11238 0.0124523C7.96152 0.0124523 7.8768 0.0362498 7.77879 0.106196C7.58871 0.241791 7.53906 0.396182 7.53906 0.851343V1.24336H6.81641H6.09375L6.09359 2.24957C6.09348 3.18471 6.08797 3.26478 6.01582 3.38314C5.85 3.65527 5.51578 3.74147 5.23617 3.58426C4.94129 3.41846 4.94379 3.43261 4.92188 1.80297C4.90316 0.411344 4.89895 0.3455 4.82145 0.239916C4.66004 0.0199941 4.36562 -0.0606595 4.12109 0.04809ZM0 12.1394C0 17.9302 0.001875 18.0801 0.0775391 18.3761C0.177578 18.7674 0.347422 19.0625 0.642305 19.3575C0.937188 19.6525 1.23219 19.8224 1.62332 19.9224C1.92102 19.9986 2.0743 20 10 20C17.9159 20 18.0793 19.9985 18.3756 19.9227C18.7836 19.8183 19.0316 19.6771 19.338 19.3748C19.651 19.0659 19.8198 18.7774 19.9225 18.3761C19.9981 18.0801 20 17.9302 20 12.1394V6.20605H10H0V12.1394ZM6.21133 8.24779C6.28234 8.29617 6.37723 8.38534 6.42219 8.44602C6.50164 8.55329 6.50391 8.59647 6.50391 9.99646C6.50391 11.3964 6.50164 11.4396 6.42219 11.5469C6.37723 11.6076 6.28234 11.6967 6.21133 11.7451C6.08328 11.8323 6.07027 11.833 4.66797 11.833C3.26566 11.833 3.25266 11.8323 3.12461 11.7451C3.05359 11.6967 2.95871 11.6076 2.91375 11.5469C2.8343 11.4396 2.83203 11.3964 2.83203 9.99646C2.83203 8.59647 2.8343 8.55329 2.91375 8.44602C2.95871 8.38534 3.05359 8.29617 3.12461 8.24779C3.25266 8.16061 3.26566 8.15987 4.66797 8.15987C6.07027 8.15987 6.08328 8.16061 6.21133 8.24779ZM16.8754 8.24779C16.9464 8.29617 17.0413 8.38534 17.0863 8.44602C17.1657 8.55329 17.168 8.59647 17.168 9.99646C17.168 11.3964 17.1657 11.4396 17.0863 11.5469C17.0413 11.6076 16.9464 11.6967 16.8754 11.7451C16.7473 11.8323 16.7343 11.833 15.332 11.833C13.9297 11.833 13.9167 11.8323 13.7887 11.7451C13.7177 11.6967 13.6228 11.6076 13.5778 11.5469C13.4984 11.4396 13.4961 11.3964 13.4961 9.99646C13.4961 8.59647 13.4984 8.55329 13.5778 8.44602C13.6228 8.38534 13.7177 8.29617 13.7887 8.24779C13.9167 8.16061 13.9297 8.15987 15.332 8.15987C16.7343 8.15987 16.7473 8.16061 16.8754 8.24779ZM11.6406 8.62464C11.8875 8.80146 11.9729 9.08148 11.8597 9.34318C11.8298 9.41234 11.3684 9.90205 10.8343 10.4314C9.76777 11.4885 9.70379 11.5337 9.40109 11.443C9.27961 11.4066 9.11934 11.2748 8.72484 10.8868C8.44047 10.6071 8.18039 10.3205 8.14688 10.2499C7.97242 9.88208 8.20488 9.46603 8.61039 9.42028C8.8325 9.39527 8.98133 9.47522 9.30699 9.79467L9.57098 10.0536L10.3046 9.32048C10.7546 8.87078 11.083 8.57353 11.1539 8.55157C11.3048 8.50491 11.5182 8.53696 11.6406 8.62464ZM3.98438 9.99646V10.6608H4.66797H5.35156V9.99646V9.33216H4.66797H3.98438V9.99646ZM14.6484 9.99646V10.6608H15.332H16.0156V9.99646V9.33216H15.332H14.6484V9.99646ZM6.20957 13.2607C6.28398 13.3045 6.38066 13.4012 6.42441 13.4756C6.50039 13.605 6.50391 13.6733 6.50391 15.0178C6.50391 16.3587 6.5002 16.4309 6.42488 16.5613C6.37809 16.6423 6.27516 16.7339 6.17246 16.786C6.00273 16.872 5.97094 16.8739 4.66797 16.8739C3.36523 16.8739 3.33316 16.872 3.16258 16.786C3.03523 16.7217 2.96461 16.6511 2.90039 16.5237C2.81434 16.353 2.8125 16.3217 2.81336 15.0193C2.81465 13.0345 2.68621 13.1585 4.72656 13.1722C6.00277 13.1807 6.08141 13.1854 6.20957 13.2607ZM11.5499 13.2629C11.6105 13.3079 11.6997 13.4028 11.748 13.4739C11.8352 13.602 11.8359 13.615 11.8359 15.0178C11.8359 16.4206 11.8352 16.4336 11.748 16.5617C11.6997 16.6327 11.6105 16.7276 11.5499 16.7726C11.4427 16.8521 11.3995 16.8544 10 16.8544C8.60051 16.8544 8.55734 16.8521 8.45012 16.7726C8.38945 16.7276 8.30031 16.6327 8.25195 16.5617C8.16484 16.4336 8.16406 16.4201 8.16406 15.0296C8.16406 13.5233 8.16477 13.5175 8.37008 13.3257C8.42305 13.2763 8.51699 13.2202 8.57887 13.2011C8.64078 13.1821 9.30977 13.1698 10.0655 13.1738C11.3927 13.1809 11.4435 13.184 11.5499 13.2629ZM16.875 13.2602C16.956 13.307 17.0476 13.41 17.0996 13.5127C17.1856 13.6825 17.1875 13.7143 17.1875 15.0178C17.1875 16.321 17.1856 16.353 17.0996 16.5237C17.0354 16.6511 16.9648 16.7217 16.8374 16.786C16.6668 16.872 16.6348 16.8739 15.332 16.8739C13.3712 16.8739 13.5012 16.9982 13.4844 15.1073C13.4721 13.7197 13.4871 13.5566 13.6439 13.3756C13.8177 13.175 13.9261 13.1623 15.3906 13.1722C16.6632 13.1807 16.7459 13.1856 16.875 13.2602ZM4.00199 14.3834C3.99117 14.4117 3.98715 14.7154 3.99312 15.0584L4.00391 15.6821H4.66797H5.33203V15.0178V14.3535L4.67688 14.3428C4.16395 14.3344 4.01742 14.3432 4.00199 14.3834ZM9.33594 15.0178V15.7016H10H10.6641V15.0178V14.3339H10H9.33594V15.0178ZM14.6661 14.3834C14.6552 14.4117 14.6512 14.7154 14.6572 15.0584L14.668 15.6821H15.332H15.9961V15.0178V14.3535L15.3409 14.3428C14.828 14.3344 14.6815 14.3432 14.6661 14.3834Z" fill="#AFB6C6"/>
</svg>
