<svg width="20" height="18" viewBox="0 0 20 18" fill="none" xmlns="http://www.w3.org/2000/svg">
<path fill-rule="evenodd" clip-rule="evenodd" d="M9.4283 0.543481C9.07871 0.601955 8.62102 0.767513 8.27789 0.959606C7.83734 1.20622 7.23483 1.80074 6.99691 2.22368C6.21033 3.62164 6.4344 5.30665 7.55601 6.42826C8.22204 7.09432 9.05233 7.43698 10 7.43698C10.9477 7.43698 11.778 7.09432 12.444 6.42826C13.5656 5.30665 13.7897 3.62164 13.0031 2.22368C12.7652 1.80074 12.1627 1.20622 11.7221 0.959606C11.0254 0.569587 10.1844 0.417023 9.4283 0.543481ZM3.23742 3.82845C2.46391 4.03107 1.79898 4.61323 1.49479 5.35413C1.34982 5.70708 1.30568 5.94195 1.30614 6.35722C1.30665 6.77671 1.38243 7.10579 1.56646 7.4872C1.88798 8.1537 2.53499 8.6764 3.2681 8.86195C3.60004 8.94595 4.18865 8.94399 4.52055 8.85777C5.09957 8.70732 5.71123 8.27655 6.04282 7.78567C6.57135 7.00329 6.62309 5.96465 6.17624 5.10755C5.97699 4.72536 5.50157 4.24994 5.11937 4.05068C4.54939 3.75354 3.84211 3.67002 3.23742 3.82845ZM15.4488 3.82845C14.7857 4.00215 14.1316 4.51698 13.8238 5.10755C13.4662 5.79342 13.4224 6.59475 13.7038 7.30239C13.9986 8.04376 14.6953 8.65405 15.4795 8.85777C15.8113 8.94399 16.4 8.94595 16.7319 8.86195C17.656 8.62806 18.3919 7.89209 18.6296 6.96387C18.703 6.67714 18.7143 6.09268 18.652 5.80422C18.4468 4.85444 17.6887 4.06739 16.7472 3.82661C16.3563 3.72665 15.8345 3.72736 15.4488 3.82845ZM7.63209 8.2299C7.03793 8.36493 6.64564 8.58399 6.19996 9.02963C5.82904 9.40059 5.62885 9.71937 5.46446 10.2008L5.36204 10.5009L5.35166 13.7886C5.34149 17.0202 5.34262 17.0784 5.4198 17.2038C5.46297 17.274 5.55569 17.3663 5.62587 17.4091C5.75108 17.4855 5.83147 17.4869 10 17.4869C14.1685 17.4869 14.2489 17.4855 14.3741 17.4091C14.4443 17.3663 14.537 17.274 14.5802 17.2038C14.6574 17.0784 14.6585 17.0202 14.6483 13.7886L14.638 10.5009L14.5355 10.2008C14.3712 9.71937 14.171 9.40059 13.8 9.02963C13.4289 8.65851 13.1098 8.4582 12.6288 8.29436L12.3288 8.19217L10.0978 8.18434C8.33264 8.1782 7.81789 8.18771 7.63209 8.2299ZM2.49143 9.70152C1.37178 9.84677 0.444344 10.6474 0.0918982 11.7729C0.000391389 12.0652 0 12.0752 0 14.1017V16.1369L0.0907241 16.3616C0.274442 16.8165 0.651937 17.1938 1.10607 17.3766C1.3247 17.4645 1.37018 17.4673 2.80611 17.4793L4.28149 17.4915L4.23593 17.3622C4.17468 17.1882 4.14661 11.2108 4.20454 10.677C4.22673 10.4725 4.27382 10.1995 4.30916 10.0704C4.3445 9.94121 4.38215 9.79593 4.39284 9.74747L4.41225 9.65941L3.57601 9.66438C3.11605 9.66712 2.62798 9.68383 2.49143 9.70152ZM15.6072 9.74747C15.6178 9.79593 15.6555 9.94121 15.6908 10.0704C15.7262 10.1995 15.7733 10.4725 15.7955 10.677C15.8534 11.2108 15.8253 17.1882 15.7641 17.3622L15.7185 17.4915L17.1939 17.4793C18.6298 17.4673 18.6753 17.4645 18.8939 17.3766C19.3481 17.1938 19.7256 16.8165 19.9093 16.3616L20 16.1369V14.1017C20 12.0707 19.9998 12.0658 19.9075 11.7729C19.6108 10.8319 18.9494 10.1371 18.0631 9.83569C17.6663 9.70074 17.2685 9.65941 16.3663 9.65941H15.5877L15.6072 9.74747Z" fill="#AFB6C6"/>
</svg>
