<svg width="18" height="20" viewBox="0 0 18 20" fill="none" xmlns="http://www.w3.org/2000/svg">
<path fill-rule="evenodd" clip-rule="evenodd" d="M8.17196 0.313109C7.41474 0.485942 7.22049 0.598189 4.32081 2.53927C2.79678 3.55949 1.45062 4.48081 1.32935 4.58667C0.780751 5.06562 0.317016 5.82595 0.108913 6.58786L0 6.98651V11.9179V16.8492L0.107879 17.2484C0.438797 18.4729 1.32771 19.4966 2.45549 19.9521C3.08539 20.2066 3.20364 20.2223 4.6366 20.2426L5.98559 20.2617L5.9986 17.0031L6.00997 14.143C6.01102 13.8808 6.07194 13.6224 6.1881 13.3874C6.48159 12.7936 7.00854 12.3931 7.65225 12.2745C8.0135 12.2079 9.97421 12.2079 10.3355 12.2745C10.9792 12.3931 11.5061 12.7936 11.7996 13.3874C11.9158 13.6224 11.9767 13.8808 11.9777 14.143L11.9891 17.0031L12.0021 20.2617L13.3511 20.2426C14.7841 20.2223 14.9023 20.2066 15.5322 19.9521C16.6609 19.4962 17.542 18.4808 17.8788 17.2479L17.9877 16.8492V11.9413C17.9877 7.26036 17.9835 7.01717 17.8978 6.68123C17.7708 6.18392 17.5789 5.74028 17.3263 5.36028C16.8965 4.7139 16.6671 4.53614 13.7548 2.59271C12.2533 1.59075 10.9218 0.718937 10.796 0.655346C10.6701 0.591755 10.3876 0.481621 10.168 0.410563C9.8274 0.300382 9.67222 0.27906 9.11127 0.265111C8.66806 0.254121 8.36194 0.26976 8.17196 0.313109Z" fill="#AFB6C6"/>
</svg>
