<svg width="16" height="16" viewBox="0 0 16 16" fill="none" xmlns="http://www.w3.org/2000/svg">
<g clip-path="url(#clip0_3112_481)">
<path fill-rule="evenodd" clip-rule="evenodd" d="M5.75322 1.64316C5.69906 1.66662 5.6188 1.71993 5.57488 1.76163C5.42127 1.90741 5.40265 1.97341 5.38749 2.42534L5.37342 2.84447L5.11589 2.89643C4.61906 2.99667 4.08287 3.22449 3.6151 3.53412C3.28563 3.75218 2.7194 4.32148 2.49349 4.66178C2.19534 5.11095 1.98195 5.61237 1.86368 6.14181C1.81332 6.36721 1.80485 6.54329 1.78639 7.74539C1.76349 9.23737 1.74858 9.39053 1.57492 9.91569C1.36164 10.5606 1.04216 11.0646 0.511769 11.5929C0.05199 12.0509 0 12.1488 0 12.5562C0 12.8058 0.00866499 12.8551 0.0769721 12.9942C0.225824 13.2973 0.519562 13.5195 0.854852 13.5826C1.07305 13.6237 10.8897 13.6217 11.1144 13.5806C11.4374 13.5214 11.7312 13.2963 11.8796 12.9942C11.9479 12.8551 11.9566 12.8058 11.9566 12.5562C11.9566 12.1517 11.9006 12.0439 11.4701 11.6191C11.1044 11.2583 10.9396 11.0551 10.7427 10.722C10.4976 10.3075 10.33 9.85464 10.2395 9.36304C10.1996 9.14552 10.1866 8.84444 10.17 7.74539C10.1519 6.54147 10.1435 6.36755 10.093 6.14181C9.90566 5.30474 9.54879 4.65872 8.93411 4.04401C8.32717 3.43701 7.63242 3.05617 6.84067 2.89643L6.58314 2.84447L6.56908 2.42534C6.55391 1.97341 6.53529 1.90747 6.38168 1.76157C6.21665 1.60481 5.95541 1.55558 5.75322 1.64316ZM3.7839 14.2433C3.7839 14.3366 3.9597 14.757 4.07693 14.9441C4.56079 15.7163 5.49915 16.1319 6.3767 15.9626C6.99405 15.8435 7.50858 15.501 7.85757 14.9767C7.98175 14.7902 8.16974 14.356 8.17173 14.2512C8.1726 14.2047 8.04978 14.2019 5.97828 14.2019C4.06557 14.2019 3.7839 14.2073 3.7839 14.2433Z" fill="#AFB6C6"/>
<g filter="url(#filter0_d_3112_481)">
<circle cx="13.6" cy="2.4" r="2.4" fill="#00A0EC"/>
</g>
</g>
<defs>
<filter id="filter0_d_3112_481" x="9.19995" y="0" width="8.80005" height="8.7998" filterUnits="userSpaceOnUse" color-interpolation-filters="sRGB">
<feFlood flood-opacity="0" result="BackgroundImageFix"/>
<feColorMatrix in="SourceAlpha" type="matrix" values="0 0 0 0 0 0 0 0 0 0 0 0 0 0 0 0 0 0 127 0" result="hardAlpha"/>
<feOffset dy="2"/>
<feGaussianBlur stdDeviation="1"/>
<feColorMatrix type="matrix" values="0 0 0 0 0.0235294 0 0 0 0 0.537255 0 0 0 0 0.764706 0 0 0 0.15 0"/>
<feBlend mode="normal" in2="BackgroundImageFix" result="effect1_dropShadow_3112_481"/>
<feBlend mode="normal" in="SourceGraphic" in2="effect1_dropShadow_3112_481" result="shape"/>
</filter>
<clipPath id="clip0_3112_481">
<rect width="16" height="16" fill="white"/>
</clipPath>
</defs>
</svg>
