<svg width="20" height="20" viewBox="0 0 20 20" fill="none" xmlns="http://www.w3.org/2000/svg">
<path fill-rule="evenodd" clip-rule="evenodd" d="M6.49886 0.619355C5.60578 0.934659 4.23202 1.72755 3.72401 2.22091C3.34741 2.58667 3.2667 3.0668 3.47664 3.69269C3.63684 4.17024 3.6499 4.84946 3.50756 5.29926C3.2014 6.26678 2.38693 6.95644 1.36775 7.11108C0.832405 7.19229 0.491813 7.41412 0.287508 7.81459C0.100187 8.18181 -0.0336793 9.40275 0.0074654 10.3693C0.0582078 11.5626 0.170584 11.9793 0.52578 12.292C0.738181 12.479 0.918533 12.5487 1.43034 12.642C2.00161 12.7461 2.35472 12.9359 2.78653 13.371C3.33906 13.9279 3.55522 14.4532 3.55184 15.2307C3.55021 15.6054 3.53356 15.6949 3.38897 16.107C3.03194 17.1246 3.2203 17.4955 4.53914 18.3719C4.98748 18.6698 5.87026 19.1274 6.36633 19.319C6.87743 19.5163 7.17045 19.5209 7.53808 19.3372C7.70324 19.2547 7.85217 19.1392 7.95161 19.0165C8.43633 18.4183 8.76758 18.1685 9.32637 17.9797C10.3553 17.6322 11.4705 17.965 12.1845 18.8329C12.5835 19.318 13.0827 19.4903 13.6025 19.3223C14.0129 19.1898 14.9161 18.7184 15.4786 18.3431C16.1926 17.8668 16.5574 17.5356 16.6787 17.2537C16.8327 16.8956 16.8335 16.7034 16.6827 16.2531C16.5143 15.7503 16.4709 15.1344 16.573 14.6994C16.7993 13.7361 17.5352 12.9962 18.4981 12.7639C19.1875 12.5976 19.2155 12.586 19.452 12.3698C19.6177 12.2184 19.7059 12.0965 19.766 11.9357C20.0843 11.0849 20.076 8.63644 19.7524 7.92459C19.6463 7.69132 19.4225 7.44467 19.2233 7.34168C19.1527 7.30517 18.9653 7.24829 18.8068 7.21524C17.6996 6.98435 16.9258 6.27129 16.6598 5.23666C16.5622 4.85697 16.5941 4.14512 16.7244 3.79701C16.8554 3.44674 16.8582 3.03183 16.7313 2.75379C16.6123 2.49307 16.5051 2.37873 16.0418 2.01848C15.1253 1.30592 13.6959 0.581256 13.1097 0.532142C12.6737 0.495629 12.4934 0.584094 11.9472 1.10266C11.59 1.44171 11.401 1.58676 11.1634 1.70418C10.42 2.07148 9.60662 2.07119 8.851 1.70331C8.59336 1.57787 8.4264 1.4506 8.06157 1.10157C7.70766 0.762986 7.55139 0.642765 7.39691 0.590103C7.11941 0.495545 6.82209 0.505226 6.49886 0.619355ZM10.7991 6.75363C11.6676 6.98974 12.3332 7.4652 12.8033 8.1854C13.8023 9.71568 13.3582 11.7833 11.814 12.7914C11.2458 13.1623 10.7325 13.3094 10.0056 13.3094C9.06256 13.3094 8.30251 12.999 7.65146 12.3479C7.00044 11.6969 6.69002 10.9368 6.69002 9.99376C6.69002 9.26693 6.83707 8.75358 7.208 8.1854C7.71004 7.41633 8.49083 6.89259 9.40057 6.71466C9.75593 6.64514 10.4736 6.66513 10.7991 6.75363Z" fill="#00A0EC"/>
</svg>
